<svg viewBox="0 0 940 620" xmlns="http://www.w3.org/2000/svg" font-family="-apple-system,'Segoe UI',Helvetica,Arial,sans-serif">
  <defs>
    <marker id="ar" viewBox="0 0 10 10" refX="8" refY="5" markerWidth="7" markerHeight="7" orient="auto-start-reverse">
      <path d="M1 1L9 5L1 9" fill="none" stroke="#6b7280" stroke-width="1.6" stroke-linecap="round"/>
    </marker>
  </defs>
  <rect width="940" height="620" fill="#ffffff"/>
  <text x="470" y="34" text-anchor="middle" font-size="19" font-weight="700" fill="#111827">nokku-ops — Autonomous Agent Organization</text>
  <text x="470" y="54" text-anchor="middle" font-size="12" fill="#6b7280">launchd-resident agents on Mac mini · GitHub Projects + Obsidian as substrate · human-in-the-loop weekly ops</text>

  <rect x="40" y="90" width="180" height="64" rx="10" fill="#f3f4f6" stroke="#9ca3af"/>
  <text x="130" y="116" text-anchor="middle" font-size="13" font-weight="600" fill="#111827">Inbox</text>
  <text x="130" y="134" text-anchor="middle" font-size="11" fill="#4b5563">Slack brain-dump / vault inbox</text>

  <rect x="40" y="200" width="180" height="64" rx="10" fill="#dbeafe" stroke="#3b82f6"/>
  <text x="130" y="226" text-anchor="middle" font-size="13" font-weight="600" fill="#111827">Dispatcher</text>
  <text x="130" y="244" text-anchor="middle" font-size="11" fill="#4b5563">classify &amp; route</text>
  <line x1="130" y1="154" x2="130" y2="196" stroke="#6b7280" stroke-width="1.6" marker-end="url(#ar)"/>

  <rect x="300" y="150" width="330" height="164" rx="12" fill="#fefce8" stroke="#ca8a04"/>
  <text x="465" y="176" text-anchor="middle" font-size="13" font-weight="700" fill="#111827">Substrate (single source of truth)</text>
  <rect x="320" y="192" width="140" height="100" rx="8" fill="#ffffff" stroke="#ca8a04"/>
  <text x="390" y="214" text-anchor="middle" font-size="12" font-weight="600" fill="#111827">GitHub Projects</text>
  <text x="390" y="234" text-anchor="middle" font-size="10.5" fill="#4b5563">Eng boards · Personal</text>
  <text x="390" y="250" text-anchor="middle" font-size="10.5" fill="#4b5563">Inquiry board</text>
  <text x="390" y="272" text-anchor="middle" font-size="10.5" fill="#4b5563">task state</text>
  <rect x="472" y="192" width="140" height="100" rx="8" fill="#ffffff" stroke="#ca8a04"/>
  <text x="542" y="214" text-anchor="middle" font-size="12" font-weight="600" fill="#111827">Obsidian vault</text>
  <text x="542" y="234" text-anchor="middle" font-size="10.5" fill="#4b5563">kernel · decisions/ADR</text>
  <text x="542" y="250" text-anchor="middle" font-size="10.5" fill="#4b5563">notes · reports</text>
  <text x="542" y="272" text-anchor="middle" font-size="10.5" fill="#4b5563">knowledge &amp; judgment</text>
  <line x1="220" y1="232" x2="296" y2="232" stroke="#6b7280" stroke-width="1.6" marker-end="url(#ar)"/>

  <rect x="700" y="150" width="200" height="64" rx="10" fill="#dcfce7" stroke="#16a34a"/>
  <text x="800" y="176" text-anchor="middle" font-size="13" font-weight="600" fill="#111827">Executor</text>
  <text x="800" y="194" text-anchor="middle" font-size="11" fill="#4b5563">TDD · PR-based implementation</text>
  <rect x="700" y="250" width="200" height="64" rx="10" fill="#dcfce7" stroke="#16a34a"/>
  <text x="800" y="276" text-anchor="middle" font-size="13" font-weight="600" fill="#111827">Reviewer</text>
  <text x="800" y="294" text-anchor="middle" font-size="11" fill="#4b5563">auto-review · allowlist merge</text>
  <line x1="634" y1="182" x2="696" y2="182" stroke="#6b7280" stroke-width="1.6" marker-end="url(#ar)"/>
  <line x1="800" y1="214" x2="800" y2="246" stroke="#6b7280" stroke-width="1.6" marker-end="url(#ar)"/>
  <path d="M700 300 C 660 320, 660 320, 634 300" fill="none" stroke="#6b7280" stroke-width="1.4" stroke-dasharray="4 3" marker-end="url(#ar)"/>
  <text x="655" y="336" text-anchor="middle" font-size="10" fill="#6b7280">corrections loop</text>

  <rect x="120" y="380" width="200" height="64" rx="10" fill="#fae8ff" stroke="#a855f7"/>
  <text x="220" y="406" text-anchor="middle" font-size="13" font-weight="600" fill="#111827">Auditor (weekly)</text>
  <text x="220" y="424" text-anchor="middle" font-size="11" fill="#4b5563">cross-log audit → report</text>
  <line x1="380" y1="314" x2="270" y2="376" stroke="#6b7280" stroke-width="1.6" marker-end="url(#ar)"/>

  <rect x="380" y="380" width="240" height="64" rx="10" fill="#ffe4e6" stroke="#e11d48"/>
  <text x="500" y="402" text-anchor="middle" font-size="13" font-weight="700" fill="#111827">Human (weekly ops)</text>
  <text x="500" y="420" text-anchor="middle" font-size="11" fill="#4b5563">audit-review → planning</text>
  <text x="500" y="434" text-anchor="middle" font-size="11" fill="#4b5563">adopts / promotes / decides</text>
  <line x1="324" y1="412" x2="376" y2="412" stroke="#6b7280" stroke-width="1.6" marker-end="url(#ar)"/>
  <path d="M560 380 C 590 340, 600 340, 615 318" fill="none" stroke="#6b7280" stroke-width="1.4" stroke-dasharray="4 3" marker-end="url(#ar)"/>
  <text x="640" y="352" text-anchor="middle" font-size="10" fill="#6b7280">manual / kernel PRs</text>

  <rect x="700" y="380" width="200" height="64" rx="10" fill="#dbeafe" stroke="#3b82f6"/>
  <text x="800" y="406" text-anchor="middle" font-size="13" font-weight="600" fill="#111827">Briefer (daily)</text>
  <text x="800" y="424" text-anchor="middle" font-size="11" fill="#4b5563">tasks · calendar · policy → Slack</text>
  <line x1="624" y1="412" x2="696" y2="412" stroke="#6b7280" stroke-width="1.6" marker-end="url(#ar)"/>

  <rect x="120" y="500" width="780" height="72" rx="12" fill="#f9fafb" stroke="#d1d5db"/>
  <text x="510" y="528" text-anchor="middle" font-size="12.5" font-weight="600" fill="#111827">Planning cascade — long-term goals stay connected to daily execution</text>
  <text x="510" y="552" text-anchor="middle" font-size="12" fill="#374151">3-year plan (leading indicators) → quarterly milestones → weekly policy → daily brief</text>
  <line x1="500" y1="444" x2="500" y2="496" stroke="#6b7280" stroke-width="1.6" marker-end="url(#ar)"/>
</svg>
